<svg xmlns="http://www.w3.org/2000/svg" viewBox="0 0 24 24" aria-hidden="true">
  <path fill="currentColor" d="M12.04 3.5a8.42 8.42 0 0 0-7.15 12.87L4 20.5l4.23-1.1a8.39 8.39 0 0 0 3.81.91h.01a8.41 8.41 0 0 0 0-16.81Zm0 15.34h-.01a6.96 6.96 0 0 1-3.54-.97l-.25-.15-2.5.65.67-2.43-.16-.25a6.94 6.94 0 1 1 5.79 3.15Zm3.82-5.2c-.21-.1-1.24-.61-1.43-.68-.19-.07-.33-.1-.47.1-.14.21-.54.68-.66.82-.12.14-.24.16-.45.05-.21-.1-.88-.32-1.67-1.03-.62-.55-1.04-1.23-1.16-1.44-.12-.21-.01-.32.09-.42.09-.09.21-.24.31-.36.1-.12.14-.21.21-.35.07-.14.03-.26-.02-.36-.05-.1-.47-1.13-.64-1.55-.17-.4-.34-.35-.47-.36h-.4c-.14 0-.36.05-.55.26-.19.21-.73.71-.73 1.73s.75 2.01.86 2.15c.1.14 1.47 2.25 3.57 3.15.5.22.89.35 1.2.45.5.16.95.14 1.31.08.4-.06 1.24-.5 1.42-.99.17-.49.17-.9.12-.99-.05-.09-.19-.14-.4-.24Z"/>
</svg>
